<svg width="167" height="230" viewBox="0 0 167 230" fill="none" xmlns="http://www.w3.org/2000/svg">
<path d="M95.5 20C95.5 25.0342 93.9665 29.4956 91.6066 32.6421C89.2473 35.7879 86.1788 37.5 83 37.5C79.8212 37.5 76.7527 35.7879 74.3934 32.6421C72.0335 29.4956 70.5 25.0342 70.5 20C70.5 14.9658 72.0335 10.5044 74.3934 7.35786C76.7527 4.21214 79.8212 2.5 83 2.5C86.1788 2.5 89.2473 4.21214 91.6066 7.35786C93.9665 10.5044 95.5 14.9658 95.5 20Z" fill="#E0E1EF" stroke="#9EA2BE" stroke-width="5"/>
<path d="M115.5 200C115.5 214.84 101.325 227.5 83 227.5C64.6753 227.5 50.5 214.84 50.5 200C50.5 185.16 64.6753 172.5 83 172.5C101.325 172.5 115.5 185.16 115.5 200Z" fill="#E0E1EF" stroke="#9EA2BE" stroke-width="5"/>
<mask id="path-3-inside-1_102_2" fill="white">
<path fill-rule="evenodd" clip-rule="evenodd" d="M84 19C47.0739 19 16.1297 46.9268 12.3545 83.6594L9.03697 115.938C8.62897 119.907 8.53571 123.831 8.73609 127.685L0 200H167L159.254 127.867C159.467 123.955 159.377 119.97 158.963 115.938L155.646 83.6594C151.87 46.9268 120.926 19 84 19Z"/>
</mask>
<path fill-rule="evenodd" clip-rule="evenodd" d="M84 19C47.0739 19 16.1297 46.9268 12.3545 83.6594L9.03697 115.938C8.62897 119.907 8.53571 123.831 8.73609 127.685L0 200H167L159.254 127.867C159.467 123.955 159.377 119.97 158.963 115.938L155.646 83.6594C151.87 46.9268 120.926 19 84 19Z" fill="#E0E1EF"/>
<path d="M12.3545 83.6594L17.3283 84.1706L17.3283 84.1706L12.3545 83.6594ZM9.03697 115.938L4.06317 115.426L4.06317 115.426L9.03697 115.938ZM8.73609 127.685L13.7 128.284L13.7517 127.856L13.7293 127.425L8.73609 127.685ZM0 200L-4.96391 199.4L-5.64038 205H0V200ZM167 200V205H172.566L171.971 199.466L167 200ZM159.254 127.867L154.262 127.595L154.24 127.999L154.283 128.401L159.254 127.867ZM158.963 115.938L153.989 116.449L153.989 116.449L158.963 115.938ZM155.646 83.6594L160.619 83.1482L160.619 83.1482L155.646 83.6594ZM17.3283 84.1706C20.8415 49.988 49.6374 24 84 24V14C44.5104 14 11.418 43.8655 7.38065 83.1482L17.3283 84.1706ZM14.0108 116.449L17.3283 84.1706L7.38065 83.1482L4.06317 115.426L14.0108 116.449ZM13.7293 127.425C13.5423 123.828 13.6291 120.162 14.0108 116.449L4.06317 115.426C3.62879 119.653 3.52912 123.834 3.74283 127.944L13.7293 127.425ZM4.96391 200.6L13.7 128.284L3.77218 127.085L-4.96391 199.4L4.96391 200.6ZM167 195H0V205H167V195ZM154.283 128.401L162.029 200.534L171.971 199.466L164.226 127.333L154.283 128.401ZM153.989 116.449C154.377 120.221 154.46 123.943 154.262 127.595L164.247 128.139C164.474 123.966 164.378 119.72 163.937 115.426L153.989 116.449ZM150.672 84.1706L153.989 116.449L163.937 115.426L160.619 83.1482L150.672 84.1706ZM84 24C118.363 24 147.159 49.988 150.672 84.1706L160.619 83.1482C156.582 43.8655 123.49 14 84 14V24Z" fill="#9EA2BE" mask="url(#path-3-inside-1_102_2)"/>
</svg>
